<?xml version="1.0" standalone="no"?>
<svg xmlns:xlink="http://www.w3.org/1999/xlink" id="wave" style="transform:rotate(180deg); transition: 0.3s" viewBox="0 0 1440 100" version="1.1" xmlns="http://www.w3.org/2000/svg"><defs><linearGradient id="sw-gradient-0" x1="0" x2="0" y1="1" y2="0"><stop stop-color="rgba(255, 252, 245, 1)" offset="0%"/><stop stop-color="rgba(255, 252, 245, 1)" offset="100%"/></linearGradient></defs><path style="transform:translate(0, 0px); opacity:1" fill="url(#sw-gradient-0)" d="M0,0L60,6.7C120,13,240,27,360,28.3C480,30,600,20,720,26.7C840,33,960,57,1080,66.7C1200,77,1320,73,1440,61.7C1560,50,1680,30,1800,21.7C1920,13,2040,17,2160,28.3C2280,40,2400,60,2520,68.3C2640,77,2760,73,2880,63.3C3000,53,3120,37,3240,40C3360,43,3480,67,3600,78.3C3720,90,3840,90,3960,88.3C4080,87,4200,83,4320,81.7C4440,80,4560,80,4680,66.7C4800,53,4920,27,5040,26.7C5160,27,5280,53,5400,63.3C5520,73,5640,67,5760,55C5880,43,6000,27,6120,20C6240,13,6360,17,6480,25C6600,33,6720,47,6840,43.3C6960,40,7080,20,7200,16.7C7320,13,7440,27,7560,40C7680,53,7800,67,7920,68.3C8040,70,8160,60,8280,53.3C8400,47,8520,43,8580,41.7L8640,40L8640,100L8580,100C8520,100,8400,100,8280,100C8160,100,8040,100,7920,100C7800,100,7680,100,7560,100C7440,100,7320,100,7200,100C7080,100,6960,100,6840,100C6720,100,6600,100,6480,100C6360,100,6240,100,6120,100C6000,100,5880,100,5760,100C5640,100,5520,100,5400,100C5280,100,5160,100,5040,100C4920,100,4800,100,4680,100C4560,100,4440,100,4320,100C4200,100,4080,100,3960,100C3840,100,3720,100,3600,100C3480,100,3360,100,3240,100C3120,100,3000,100,2880,100C2760,100,2640,100,2520,100C2400,100,2280,100,2160,100C2040,100,1920,100,1800,100C1680,100,1560,100,1440,100C1320,100,1200,100,1080,100C960,100,840,100,720,100C600,100,480,100,360,100C240,100,120,100,60,100L0,100Z"/></svg>